#!OML:ASF E:\Style6\Style6.ASF
:FULLY-SPECIFIED
:DEGREES
2544
root 0.512415 18.2685 0.351041 10.5217 -1.97438 -0.155928
lowerback 4.54747 -0.252978 1.5309
upperback -8.44342 0.12845 3.16896
thorax -11.6319 0.101085 2.55153
lowerneck 7.31787 3.01657 2.7328
upperneck -18.4439 3.36444 -6.39846
head -6.63944 1.96032 -2.77074
rclavicle -5.1684e-015 1.59028e-014
rhumerus -27.3529 3.42974 -40.2037
rradius 95.4649
rwrist 4.86427
rhand -39.4783 23.5267
rfingers 7.12502
rthumb -12.4648 -6.08158
lclavicle -5.1684e-015 1.59028e-014
lhumerus -38.4679 -10.6776 54.5911
lradius 102.945
lwrist 5.22687
lhand -34.0139 28.0634
lfingers 7.12502
lthumb -7.193 57.9211
rfemur -12.6773 10.7488 16.5874
rtibia 11.6399
rfoot -10.3213 -20.985
rtoes 8.4096
lfemur -14.1659 -9.54691 -18.7025
ltibia 15.8169
lfoot -4.24021 17.3323
ltoes -12.0694
2545
root 0.511349 18.2676 0.350959 10.5135 -1.95833 -0.18529
lowerback 4.58417 -0.263829 1.59285
upperback -8.45094 0.122359 3.17469
thorax -11.663 0.0931341 2.52475
lowerneck 7.28506 3.0035 2.7039
upperneck -18.2993 3.34966 -6.38261
head -6.58923 1.9528 -2.75536
rclavicle -8.94531e-015 7.95139e-015
rhumerus -27.4612 3.10249 -40.2091
rradius 95.2747
rwrist 4.95753
rhand -39.5184 23.8572
rfingers 7.12502
rthumb -12.5035 -5.7487
lclavicle -8.94531e-015 7.95139e-015
lhumerus -38.5566 -10.5448 54.551
lradius 102.953
lwrist 5.26896
lhand -34.0266 28.0201
lfingers 7.12502
lthumb -7.20524 57.8775
rfemur -12.6586 10.7361 16.6292
rtibia 11.6173
rfoot -10.3908 -20.9716
rtoes 8.84271
lfemur -14.1869 -9.52916 -18.6689
ltibia 15.8515
lfoot -4.13851 17.3183
ltoes -12.2916
2546
root 0.510061 18.2677 0.350754 10.5083 -1.96191 -0.225594
lowerback 4.62188 -0.26343 1.65447
upperback -8.45967 0.131301 3.17698
thorax -11.6967 0.0922756 2.49228
lowerneck 7.29083 2.96175 2.74908
upperneck -18.2116 3.29196 -6.43848
head -6.56297 1.9262 -2.77464
rclavicle 1.32192e-014 -3.97569e-015
rhumerus -27.5902 2.80981 -40.2172
rradius 95.1967
rwrist 5.03837
rhand -39.5539 24.0957
rfingers 7.12502
rthumb -12.5377 -5.50812
lclavicle 1.32192e-014 -3.97569e-015
lhumerus -38.6161 -10.4292 54.5126
lradius 103.005
lwrist 5.33204
lhand -34.0784 28.1755
lfingers 7.12502
lthumb -7.25522 58.0312
rfemur -12.6352 10.7008 16.681
rtibia 11.5886
rfoot -10.4464 -20.8962
rtoes 9.50145
lfemur -14.2064 -9.45872 -18.6283
ltibia 15.9081
lfoot -4.20664 17.27
ltoes -12.2143
2547
root 0.5087 18.2676 0.350856 10.523 -1.94695 -0.303256
lowerback 4.639 -0.275247 1.74821
upperback -8.47645 0.128075 3.19439
thorax -11.7267 0.0834841 2.45993
lowerneck 7.30249 2.93382 2.80672
upperneck -18.1068 3.25748 -6.48524
head -6.53112 1.9092 -2.79442
rclavicle 4.57205e-015 2.46493e-014
rhumerus -27.6731 2.58912 -40.2473
rradius 95.1691
rwrist 5.07929
rhand -39.5589 24.1029
rfingers 7.12502
rthumb -12.5425 -5.50059
lclavicle 4.57205e-015 2.46493e-014
lhumerus -38.7098 -10.2698 54.4698
lradius 103.052
lwrist 5.3533
lhand -34.1055 28.2791
lfingers 7.12502
lthumb -7.28137 58.1338
rfemur -12.6385 10.6334 16.7854
rtibia 11.5704
rfoot -10.2859 -20.9275
rtoes 8.75583
lfemur -14.2402 -9.4262 -18.5332
ltibia 15.9665
lfoot -4.31326 17.2408
ltoes -11.948
2548
root 0.507496 18.2668 0.351511 10.5095 -1.97063 -0.218998
lowerback 4.67476 -0.264622 1.67131
upperback -8.46939 0.132519 3.164
thorax -11.7403 0.0908517 2.46975
lowerneck 7.16258 2.91779 2.81516
upperneck -17.8436 3.24516 -6.47926
head -6.42335 1.89924 -2.78332
rclavicle -1.05356e-014 -1.11319e-014
rhumerus -27.7785 2.3449 -40.2273
rradius 95.1586
rwrist 5.09852
rhand -39.4311 23.991
rfingers 7.12502
rthumb -12.4194 -5.62003
lclavicle -1.05356e-014 -1.11319e-014
lhumerus -38.7543 -10.1131 54.4384
lradius 103.071
lwrist 5.32498
lhand -34.0137 28.3818
lfingers 7.12502
lthumb -7.19281 58.2396
rfemur -12.6328 10.6021 16.7002
rtibia 11.5866
rfoot -10.3746 -20.833
rtoes 9.06136
lfemur -14.2359 -9.41066 -18.6267
ltibia 16.0064
lfoot -4.31746 17.2498
ltoes -12.3247
2549
root 0.506219 18.2671 0.352506 10.5456 -1.97265 -0.230373
lowerback 4.63133 -0.253123 1.68468
upperback -8.45346 0.148383 3.17469
thorax -11.6959 0.0976866 2.4703
lowerneck 6.94621 2.9245 2.8074
upperneck -17.5075 3.26179 -6.48266
head -6.27801 1.90369 -2.77116
rclavicle 5.26779e-015 -3.97569e-015
rhumerus -27.8603 2.10976 -40.173
rradius 95.1367
rwrist 5.05801
rhand -39.4406 23.9447
rfingers 7.12502
rthumb -12.4285 -5.66581
lclavicle 5.26779e-015 -3.97569e-015
lhumerus -38.7143 -9.90478 54.4375
lradius 103.026
lwrist 5.26301
lhand -33.9624 28.4291
lfingers 7.12502
lthumb -7.14328 58.2886
rfemur -12.6924 10.6266 16.7108
rtibia 11.6254
rfoot -10.3658 -20.847
rtoes 8.83244
lfemur -14.2784 -9.39981 -18.6019
ltibia 16.029
lfoot -4.40355 17.2361
ltoes -12.1007
2550
root 0.50354 18.2678 0.352727 10.5515 -2.01869 -0.21371
lowerback 4.60843 -0.228986 1.65084
upperback -8.45873 0.176432 3.16996
thorax -11.6887 0.113958 2.47984
lowerneck 6.93939 2.91108 2.80337
upperneck -17.2485 3.25208 -6.48519
head -6.19551 1.89815 -2.76422
rclavicle 2.5842e-015 -3.18055e-015
rhumerus -27.9884 1.90829 -40.1359
rradius 95.1077
rwrist 5.03657
rhand -39.4933 24.0191
rfingers 7.12502
rthumb -12.4793 -5.58835
lclavicle 2.5842e-015 -3.18055e-015
lhumerus -38.7355 -9.79097 54.4316
lradius 102.988
lwrist 5.26757
lhand -33.9297 28.3903
lfingers 7.12502
lthumb -7.11166 58.2508
rfemur -12.771 10.6869 16.6873
rtibia 11.7268
rfoot -10.3509 -20.8702
rtoes 8.58084
lfemur -14.2757 -9.36858 -18.6198
ltibia 16.0092
lfoot -4.36515 17.2585
ltoes -12.2788
2551
root 0.500944 18.2668 0.354223 10.5341 -2.04933 -0.209981
lowerback 4.56995 -0.217763 1.6455
upperback -8.43589 0.18865 3.16879
thorax -11.6391 0.119972 2.47844
lowerneck 6.92609 2.87729 2.76415
upperneck -17.0445 3.2117 -6.46234
head -6.13217 1.87809 -2.74259
rclavicle -7.45443e-015 1.59028e-014
rhumerus -28.0592 1.64972 -40.1278
rradius 95.0995
rwrist 5.00224
rhand -39.3118 24.1126
rfingers 7.12502
rthumb -12.3043 -5.50536
lclavicle -7.45443e-015 1.59028e-014
lhumerus -38.7767 -9.672 54.4003
lradius 103.058
lwrist 5.31435
lhand -33.956 28.2813
lfingers 7.12502
lthumb -7.13707 58.141
rfemur -12.7886 10.6536 16.7001
rtibia 11.7841
rfoot -10.3096 -20.8688
rtoes 8.35299
lfemur -14.2508 -9.42062 -18.6173
ltibia 16.0207
lfoot -4.42577 17.3438
ltoes -12.0167
2552
root 0.498687 18.2647 0.354665 10.5359 -2.08529 -0.2044
lowerback 4.54559 -0.204567 1.6332
upperback -8.42204 0.204894 3.17956
thorax -11.609 0.129336 2.49389
lowerneck 6.83516 2.85676 2.71441
upperneck -16.7638 3.19291 -6.42102
head -6.03076 1.86619 -2.71142
rclavicle -1.16289e-014 2.3059e-014
rhumerus -28.1209 1.41643 -40.0933
rradius 95.1129
rwrist 4.96765
rhand -39.1475 24.0932
rfingers 7.12502
rthumb -12.1459 -5.53426
lclavicle -1.16289e-014 2.3059e-014
lhumerus -38.8138 -9.51714 54.4238
lradius 103.125
lwrist 5.35683
lhand -34.1453 28.1506
lfingers 7.12502
lthumb -7.31982 58.004
rfemur -12.8209 10.5821 16.7062
rtibia 11.831
rfoot -10.3719 -20.7838
rtoes 8.63442
lfemur -14.257 -9.42032 -18.6176
ltibia 16.0634
lfoot -4.51756 17.3255
ltoes -11.4864
2553
root 0.496655 18.2646 0.354755 10.5358 -2.1153 -0.237783
lowerback 4.54209 -0.198471 1.65686
upperback -8.41101 0.21714 3.20085
thorax -11.5949 0.134244 2.50158
lowerneck 6.68996 2.84104 2.72981
upperneck -16.3783 3.18307 -6.43841
head -5.88428 1.85767 -2.70685
rclavicle -1.38155e-014 -2.38542e-014
rhumerus -28.1561 1.21165 -40.0879
rradius 95.1298
rwrist 4.93605
rhand -39.0838 24.1756
rfingers 7.12502
rthumb -12.0845 -5.4554
lclavicle -1.38155e-014 -2.38542e-014
lhumerus -38.8302 -9.33279 54.4337
lradius 103.154
lwrist 5.35262
lhand -34.2543 28.1743
lfingers 7.12502
lthumb -7.42502 58.024
rfemur -12.8538 10.5819 16.7437
rtibia 11.8803
rfoot -10.3455 -20.7508
rtoes 8.59745
lfemur -14.2793 -9.38667 -18.5763
ltibia 16.1223
lfoot -4.5917 17.2716
ltoes -11.1451
2554
root 0.495807 18.264 0.353885 10.5568 -2.10568 -0.273167
lowerback 4.54119 -0.196616 1.70263
upperback -8.40253 0.225708 3.21738
thorax -11.5851 0.135205 2.49235
lowerneck 6.43327 2.80515 2.72676
upperneck -15.9081 3.13995 -6.48912
head -5.69384 1.83426 -2.70367
rclavicle -1.19271e-014 5.56597e-015
rhumerus -28.2115 0.988927 -40.082
rradius 95.1537
rwrist 4.9226
rhand -39.1064 24.181
rfingers 7.12502
rthumb -12.1062 -5.44878
lclavicle -1.19271e-014 5.56597e-015
lhumerus -38.8198 -9.09507 54.4337
lradius 103.137
lwrist 5.44041
lhand -34.1938 27.819
lfingers 7.12502
lthumb -7.36666 57.6707
rfemur -12.9092 10.4624 16.8026
rtibia 11.9423
rfoot -10.2449 -20.6647
rtoes 8.07793
lfemur -14.334 -9.35057 -18.5363
ltibia 16.1886
lfoot -4.69156 17.2549
ltoes -11.0514
2555
root 0.494832 18.2629 0.353899 10.5497 -2.11326 -0.237262
lowerback 4.57864 -0.178445 1.6743
upperback -8.39498 0.246812 3.1983
thorax -11.5998 0.146934 2.48479
lowerneck 6.18328 2.75216 2.74854
upperneck -15.4452 3.07756 -6.53755
head -5.50818 1.79957 -2.70345
rclavicle 7.7526e-015 2.38542e-014
rhumerus -28.2959 0.689341 -40.0867
rradius 95.1421
rwrist 4.98245
rhand -39.2213 24.0157
rfingers 7.12502
rthumb -12.217 -5.60753
lclavicle 7.7526e-015 2.38542e-014
lhumerus -38.7939 -8.90805 54.396
lradius 103.132
lwrist 5.62099
lhand -34.0479 27.3263
lfingers 7.12502
lthumb -7.22581 57.183
rfemur -12.937 10.3403 16.7815
rtibia 12.0053
rfoot -10.2039 -20.534
rtoes 8.18007
lfemur -14.3638 -9.31091 -18.5827
ltibia 16.2617
lfoot -4.66283 17.2315
ltoes -11.3841
2556
root 0.494327 18.2613 0.352977 10.5803 -2.13052 -0.232389
lowerback 4.58694 -0.172131 1.67907
upperback -8.40594 0.25606 3.19298
thorax -11.6177 0.150773 2.47545
lowerneck 5.9479 2.73865 2.78089
upperneck -14.9064 3.08308 -6.52423
head -5.3 1.79253 -2.68867
rclavicle -5.36719e-015 4.13472e-014
rhumerus -28.3532 0.43895 -40.1111
rradius 95.1277
rwrist 5.0152
rhand -39.3331 23.8916
rfingers 7.12502
rthumb -12.3248 -5.7252
lclavicle -5.36719e-015 4.13472e-014
lhumerus -38.8593 -8.77984 54.3827
lradius 103.158
lwrist 5.69299
lhand -33.9647 27.3317
lfingers 7.12502
lthumb -7.14553 57.1911
rfemur -13.0282 10.1996 16.7849
rtibia 12.075
rfoot -10.0876 -20.4451
rtoes 7.85764
lfemur -14.4819 -9.25025 -18.5908
ltibia 16.375
lfoot -4.50148 17.2257
ltoes -12.2482
2557
root 0.49383 18.2596 0.352554 10.5731 -2.15285 -0.252355
lowerback 4.56271 -0.177966 1.68711
upperback -8.36991 0.249598 3.22307
thorax -11.5618 0.148272 2.50311
lowerneck 5.74139 2.73467 2.77427
upperneck -14.4143 3.09608 -6.50705
head -5.11247 1.79166 -2.66858
rclavicle 4.27387e-015 1.35174e-014
rhumerus -28.3042 0.157049 -40.1592
rradius 95.1443
rwrist 5.00151
rhand -39.2935 23.8689
rfingers 7.12502
rthumb -12.2866 -5.7501
lclavicle 4.27387e-015 1.35174e-014
lhumerus -38.9171 -8.59254 54.394
lradius 103.205
lwrist 5.63815
lhand -33.8913 27.8022
lfingers 7.12502
lthumb -7.07461 57.664
rfemur -13.0602 10.0753 16.8225
rtibia 12.1415
rfoot -10.0715 -20.3284
rtoes 7.83526
lfemur -14.5753 -9.0643 -18.5976
ltibia 16.523
lfoot -4.37614 17.1501
ltoes -13.0331
2558
root 0.492865 18.2575 0.351066 10.5783 -2.12277 -0.358533
lowerback 4.53501 -0.209365 1.77357
upperback -8.32747 0.220883 3.30166
thorax -11.4964 0.130749 2.54236
lowerneck 5.54719 2.73615 2.7825
upperneck -13.9415 3.10326 -6.59562
head -4.93151 1.79409 -2.68444
rclavicle 4.77083e-015 -5.1684e-014
rhumerus -28.186 -0.141655 -40.2045
rradius 95.1296
rwrist 4.99414
rhand -39.166 24.0916
rfingers 7.12502
rthumb -12.1637 -5.53481
lclavicle 4.77083e-015 -5.1684e-014
lhumerus -38.9719 -8.32049 54.4103
lradius 103.241
lwrist 5.6051
lhand -33.6986 27.8479
lfingers 7.12502
lthumb -6.88859 57.7158
rfemur -13.1201 9.84842 16.9817
rtibia 12.2488
rfoot -9.70757 -20.2368
rtoes 6.08595
lfemur -14.6686 -8.81711 -18.5016
ltibia 16.6736
lfoot -4.46365 16.9324
ltoes -13.2384
